<?xml version="1.0" encoding="iso-8859-1"?>
<!-- Generator: Adobe Illustrator 19.0.0, SVG Export Plug-In . SVG Version: 6.00 Build 0)  -->
<svg version="1.1" id="Layer_1" xmlns="http://www.w3.org/2000/svg" xmlns:xlink="http://www.w3.org/1999/xlink" x="0px" y="0px"
	 viewBox="0 0 512 512" style="enable-background:new 0 0 512 512;" xml:space="preserve">
<path style="fill:#DCF3F9;" d="M512,89.043c0,49.178-39.866,89.043-89.043,89.043s-89.043-39.866-89.043-89.043S373.779,0,422.957,0
	S512,39.866,512,89.043z M512,422.957C512,472.134,472.134,512,422.957,512s-89.043-39.866-89.043-89.043
	s39.866-89.043,89.043-89.043S512,373.78,512,422.957z M178.087,256c0,49.178-39.866,89.043-89.043,89.043S0,305.178,0,256
	s39.866-89.043,89.043-89.043S178.087,206.824,178.087,256z"/>
<path style="fill:#256277;" d="M475.825,422.957c0,29.152-23.718,52.87-52.87,52.87s-52.87-23.718-52.87-52.87
	c0-5.532,0.858-10.867,2.441-15.882L131.975,286.798c-9.606,13.352-25.265,22.072-42.932,22.072c-29.152,0-52.87-23.718-52.87-52.87
	s23.718-52.87,52.87-52.87c17.666,0,33.326,8.718,42.931,22.071l240.553-120.277c-1.583-5.015-2.441-10.35-2.441-15.882
	c0-29.152,23.718-52.87,52.87-52.87s52.87,23.718,52.87,52.87s-23.718,52.87-52.87,52.87c-17.667,0-33.326-8.72-42.931-22.071
	L139.471,240.118c1.583,5.015,2.441,10.35,2.441,15.882c0,5.532-0.858,10.866-2.441,15.881l240.553,120.277
	c9.606-13.351,25.265-22.071,42.931-22.071C452.108,370.087,475.825,393.805,475.825,422.957z"/>
<path style="fill:#84A7B7;" d="M456.348,89.043c0,18.442-14.949,33.391-33.391,33.391s-33.391-14.949-33.391-33.391
	s14.949-33.391,33.391-33.391S456.348,70.601,456.348,89.043z M456.348,422.957c0,18.442-14.949,33.391-33.391,33.391
	s-33.391-14.949-33.391-33.391s14.949-33.391,33.391-33.391S456.348,404.516,456.348,422.957z M122.435,256
	c0,18.442-14.949,33.391-33.391,33.391S55.652,274.442,55.652,256s14.949-33.391,33.391-33.391S122.435,237.559,122.435,256z"/>
<g>
</g>
<g>
</g>
<g>
</g>
<g>
</g>
<g>
</g>
<g>
</g>
<g>
</g>
<g>
</g>
<g>
</g>
<g>
</g>
<g>
</g>
<g>
</g>
<g>
</g>
<g>
</g>
<g>
</g>
</svg>
